<svg width="62" height="62" viewBox="0 0 62 62" fill="none" xmlns="http://www.w3.org/2000/svg">
<path fill-rule="evenodd" clip-rule="evenodd" d="M31 62C48.1208 62 62 48.1208 62 31C62 13.8792 48.1208 0 31 0C13.8792 0 0 13.8792 0 31C0 48.1208 13.8792 62 31 62ZM26.2304 12.9632C24.3202 13.3715 22.8229 14.4042 21.7386 16.0613C20.668 17.6974 20.3316 19.4671 20.7293 21.3704C21.1339 23.2631 22.1542 24.7448 23.7903 25.8153C25.4369 26.8927 27.2171 27.236 29.131 26.8453C31.0554 26.4614 32.5495 25.4567 33.6131 23.8312C34.6905 22.1846 35.0233 20.3975 34.6114 18.4698C34.2169 16.5384 33.1964 15.034 31.5498 13.9566C29.9138 12.8861 28.1406 12.555 26.2304 12.9632ZM22.6207 21.0025C22.3462 19.6019 22.5889 18.3211 23.3486 17.1601C24.1429 15.9462 25.2366 15.1846 26.6299 14.8753C28.0232 14.5659 29.3004 14.7911 30.4614 15.5508C31.6647 16.3382 32.4141 17.4391 32.7097 18.8535C33.0052 20.2679 32.7558 21.582 31.9616 22.7958C31.195 23.9674 30.0992 24.6976 28.6742 24.9862C27.2667 25.2712 25.9666 25.0234 24.7739 24.243C23.6234 23.4902 22.9056 22.41 22.6207 21.0025ZM33.1908 35.1546C31.2805 35.5628 29.7832 36.5955 28.6989 38.2527C27.6284 39.8887 27.292 41.6584 27.6897 43.5617C28.0874 45.465 29.1042 46.952 30.7403 48.0225C32.3869 49.0999 34.1671 49.4432 36.081 49.0524C38.0054 48.6686 39.5029 47.6586 40.5734 46.0226C41.6509 44.376 41.9836 42.5888 41.5717 40.6611C41.1773 38.7298 40.1568 37.2254 38.5102 36.148C36.8741 35.0775 35.101 34.7463 33.1908 35.1546ZM29.581 43.1939C29.3066 41.7933 29.5492 40.5125 30.309 39.3514C31.1032 38.1376 32.1935 37.3812 33.5799 37.0825C34.9732 36.7731 36.2504 36.9983 37.4114 37.758C38.6147 38.5454 39.3641 39.6462 39.6597 41.0606C39.9727 42.4714 39.732 43.7837 38.9378 44.9975C38.1711 46.1691 37.0754 46.8993 35.6504 47.1879C34.2429 47.4729 32.9375 47.2217 31.7342 46.4343C30.5837 45.6815 29.866 44.6014 29.581 43.1939ZM45.9157 22.7914L44.8643 21.3573L16.0802 39.1535L17.0902 40.6509L45.9157 22.7914Z" fill="#C69AFF"/>
</svg>
