<svg width="44" height="44" viewBox="0 0 44 44" fill="none" xmlns="http://www.w3.org/2000/svg">
<path d="M22 3.66666C11.88 3.66666 3.66666 11.88 3.66666 22C3.66666 32.12 11.88 40.3333 22 40.3333C32.12 40.3333 40.3333 32.12 40.3333 22C40.3333 11.88 32.12 3.66666 22 3.66666ZM22 5.49999C31.0933 5.49999 38.5 12.9067 38.5 22C38.5 24.6033 37.8767 27.06 36.795 29.26C33.99 26.1067 29.4983 23.9617 23.265 23.705C26.7117 23.1 29.3333 20.1117 29.3333 16.5C29.3333 12.4483 26.0517 9.16666 22 9.16666C17.9483 9.16666 14.6667 12.4483 14.6667 16.5C14.6667 20.1117 17.2883 23.1 20.735 23.705C14.5017 23.9617 10.01 26.1067 7.205 29.26C6.12333 27.06 5.5 24.6033 5.5 22C5.5 12.9067 12.9067 5.49999 22 5.49999ZM16.5 16.5C16.5 13.475 18.975 11 22 11C25.025 11 27.5 13.475 27.5 16.5C27.5 19.525 25.025 22 22 22C18.975 22 16.5 19.525 16.5 16.5ZM22 38.5C16.2067 38.5 11.11 35.4933 8.15833 30.9467C11.0183 27.3717 15.785 25.4833 22 25.4833C28.215 25.4833 32.9817 27.3717 35.8417 30.9467C32.89 35.4933 27.7933 38.5 22 38.5Z" fill="#C69AFF"/>
</svg>
