<svg width="29" height="29" viewBox="0 0 29 29" fill="none" xmlns="http://www.w3.org/2000/svg">
<path d="M25.2179 24.3721L18.4633 17.6175C19.7563 16.1313 20.5417 14.1979 20.5417 12.0833C20.5417 7.40708 16.7596 3.625 12.0833 3.625C7.40708 3.625 3.625 7.40708 3.625 12.0833C3.625 16.7596 7.40708 20.5417 12.0833 20.5417C14.1979 20.5417 16.1313 19.7563 17.6175 18.4754L24.3721 25.23L25.2179 24.3721ZM12.0833 19.3333C8.08375 19.3333 4.83333 16.0829 4.83333 12.0833C4.83333 8.08375 8.08375 4.83333 12.0833 4.83333C16.0829 4.83333 19.3333 8.08375 19.3333 12.0833C19.3333 16.0829 16.0829 19.3333 12.0833 19.3333Z" fill="#C69AFF"/>
</svg>
