<svg width="100" height="100" viewBox="0 0 100 100" fill="none" xmlns="http://www.w3.org/2000/svg">
<path fill-rule="evenodd" clip-rule="evenodd" d="M78.7805 9.09033C74.4272 20.2555 64.5168 22.5787 50.1612 22.5787C48.6205 22.5787 47.0943 22.5545 45.6214 22.5326C44.197 22.5133 42.8502 22.4916 41.53 22.4916C40.3575 22.4916 39.1753 22.506 38.01 22.557C40.0208 17.6198 43.2304 14.2647 47.7993 12.2298C54.1679 9.39558 62.448 9.36651 69.7543 9.3447C72.9374 9.33259 75.9849 9.32048 78.7805 9.09033Z" fill="#323232"/>
<path fill-rule="evenodd" clip-rule="evenodd" d="M83.2558 12.672C76.8168 26.6981 62.466 28.1033 50.1648 28.1033C47.4637 28.1033 44.8765 28.0379 42.4806 28.0232L39.3823 40.1404C55.2495 27.2044 76.2329 40.029 73.9899 59.5494C72.4782 72.6962 63.1056 81.2936 53.1905 83.7644C42.3885 86.4583 30.4216 82.4273 25.0557 71.4195C24.4864 70.2567 23.4957 67.9263 23.1177 66.6812L34.5083 63.7548C34.7092 64.4113 35.0509 65.0459 35.4095 65.6251C43.0353 77.9238 58.4883 71.7733 60.2325 59.014C62.0082 46.0345 43.796 39.1206 35.4965 54.2902L25.3949 49.9854L25.2205 49.9079L30.0921 30.3513C30.3925 28.9607 31.4051 25.0774 31.5794 24.4403C37.0858 4.19333 54.8983 3.87355 69.186 3.82026C63.2777 1.36144 56.8 0 50 0C22.3837 0 0 22.3838 0 50.0001C0 77.6162 22.3837 99.9999 50 99.9999C77.6163 99.9999 100 77.6162 100 50.0001C100 35.155 93.527 21.829 83.2558 12.672Z" fill="#C69AFF"/>
</svg>