<svg width="100" height="100" viewBox="0 0 100 100" fill="none" xmlns="http://www.w3.org/2000/svg">
<path fill-rule="evenodd" clip-rule="evenodd" d="M0 29.895C0 21.93 3.14761 14.4301 8.87192 8.77007C11.6789 5.98017 15.0089 3.7697 18.6717 2.26492C22.3345 0.760148 26.2583 -0.00945108 30.2191 8.75936e-05H100V15.1901H30.2191C26.2863 15.1864 22.5128 16.741 19.7271 19.5125C18.3437 20.8663 17.2443 22.4816 16.4932 24.2643C15.7421 26.0469 15.3543 27.9611 15.3524 29.895L15.2648 55.3925C14.5536 62.165 9.39276 67.6275 2.71692 68.635L0 69.0475V29.895ZM0 99.9999V84.8074H69.7809C71.7274 84.8108 73.6555 84.4303 75.4543 83.6876C77.2531 82.945 78.8873 81.8549 80.2629 80.4799C81.6504 79.1306 82.7528 77.5172 83.5051 75.7352C84.2573 73.9532 84.6441 72.0387 84.6425 70.1049L84.6551 45.905C84.6551 38.6975 90.0839 32.4475 97.2856 31.36L100 30.9525V70.1049C100 78.0699 96.8524 85.5674 91.1256 91.2249C88.3206 94.0171 84.9914 96.2294 81.3288 97.7351C77.6661 99.2409 73.7419 100.01 69.7809 99.9999H0ZM59.2137 69.0475V49.69L49.9987 60.2825L40.7813 49.69V69.0475H28.5714V30.9525H40.1377L49.9987 43.2L59.8573 30.9525H71.4286V69.0475H59.2137Z" fill="#C69AFF"/>
</svg>
